<svg width="720" height="840" viewBox="0 0 720 840" fill="none" xmlns="http://www.w3.org/2000/svg">
  <rect width="720" height="840" rx="42" fill="url(#bg)"/>
  <circle cx="172" cy="148" r="116" fill="#8B7CFF" fill-opacity="0.18"/>
  <circle cx="552" cy="182" r="96" fill="#55D6FF" fill-opacity="0.18"/>
  <path d="M95 633C95 567.83 147.83 515 213 515H509C574.17 515 627 567.83 627 633V710H95V633Z" fill="#29366E"/>
  <ellipse cx="362" cy="382" rx="110" ry="138" fill="#FFE3D3"/>
  <path d="M266 370C266 287.71 332.71 221 415 221C497.29 221 564 287.71 564 370V403H266V370Z" fill="#111527"/>
  <path d="M284 334C284 280.995 326.995 238 380 238H443C506.513 238 558 289.487 558 353V358H284V334Z" fill="#1C2244"/>
  <path d="M330 495C352.87 517.454 379.45 528.682 409.74 528.682C440.03 528.682 467.45 517.454 492 495" stroke="#F9FFFF" stroke-width="14" stroke-linecap="round"/>
  <circle cx="367" cy="385" r="12" fill="#1E2140"/>
  <circle cx="456" cy="385" r="12" fill="#1E2140"/>
  <path d="M186 188C216.425 143.269 255.652 120.904 303.68 120.904C351.707 120.904 386.73 143.269 408.75 188" stroke="#8B7CFF" stroke-opacity="0.5" stroke-width="18" stroke-linecap="round"/>
  <path d="M420 168C448.9 130.907 484.734 112.36 527.5 112.36C570.266 112.36 601.766 130.907 622 168" stroke="#55D6FF" stroke-opacity="0.42" stroke-width="16" stroke-linecap="round"/>
  <text x="134" y="742" fill="#F7F8FF" fill-opacity="0.92" font-family="Arial, sans-serif" font-size="42" font-weight="700">Cloud Drifter</text>
  <defs>
    <linearGradient id="bg" x1="62" y1="34" x2="650" y2="816" gradientUnits="userSpaceOnUse">
      <stop stop-color="#16152C"/>
      <stop offset="0.52" stop-color="#0E1831"/>
      <stop offset="1" stop-color="#0A0A16"/>
    </linearGradient>
  </defs>
</svg>
