<svg width="720" height="840" viewBox="0 0 720 840" fill="none" xmlns="http://www.w3.org/2000/svg">
  <rect width="720" height="840" rx="42" fill="url(#bg)"/>
  <circle cx="528" cy="130" r="102" fill="#55D6FF" fill-opacity="0.22"/>
  <circle cx="168" cy="162" r="118" fill="#FF8AC8" fill-opacity="0.14"/>
  <rect x="104" y="84" width="512" height="672" rx="36" fill="white" fill-opacity="0.06" stroke="white" stroke-opacity="0.12"/>
  <path d="M282 682C282 596.396 351.396 527 437 527C522.604 527 592 596.396 592 682V714H282V682Z" fill="#2D1C58"/>
  <ellipse cx="425" cy="392" rx="104" ry="136" fill="#FFDCCA"/>
  <path d="M309 367C309 294.651 367.651 236 440 236C512.349 236 571 294.651 571 367V415H309V367Z" fill="#161126"/>
  <path d="M332 322C332 265.115 378.115 219 435 219C491.885 219 538 265.115 538 322V340H332V322Z" fill="#23183E"/>
  <path d="M401 478H474" stroke="#FCFFFF" stroke-width="16" stroke-linecap="round"/>
  <circle cx="392" cy="380" r="12" fill="#1B132B"/>
  <circle cx="465" cy="380" r="12" fill="#1B132B"/>
  <rect x="352" y="435" width="154" height="20" rx="10" fill="#55D6FF" fill-opacity="0.28"/>
  <rect x="352" y="470" width="120" height="18" rx="9" fill="#FF8AC8" fill-opacity="0.24"/>
  <path d="M173 602C173 560.026 207.026 526 249 526H298C339.974 526 374 560.026 374 602V621H173V602Z" fill="#7B6EFF" fill-opacity="0.22"/>
  <text x="136" y="742" fill="#F7F8FF" fill-opacity="0.92" font-family="Arial, sans-serif" font-size="42" font-weight="700">Glow Director</text>
  <defs>
    <linearGradient id="bg" x1="78" y1="58" x2="630" y2="830" gradientUnits="userSpaceOnUse">
      <stop stop-color="#211339"/>
      <stop offset="0.44" stop-color="#111629"/>
      <stop offset="1" stop-color="#090A15"/>
    </linearGradient>
  </defs>
</svg>
